<mxfile host="app.diagrams.net" modified="2023-09-06T10:20:04.066Z" agent="Mozilla/5.0 (Macintosh; Intel Mac OS X 10_15_7) AppleWebKit/537.36 (KHTML, like Gecko) Chrome/116.0.0.0 Safari/537.36" etag="Q8mxUTSfHXUZJAeG8HyI" version="21.7.0" type="github">
  <diagram id="vZpP5Effxj41_VfFe3MK" name="Page-1">
    <mxGraphModel dx="2253" dy="2256" grid="1" gridSize="10" guides="1" tooltips="1" connect="1" arrows="1" fold="1" page="1" pageScale="1" pageWidth="850" pageHeight="1100" math="0" shadow="0">
      <root>
        <mxCell id="0" />
        <mxCell id="1" parent="0" />
        <mxCell id="OfORN7NUINiMixhZLZNA-1" value="T_CLAIM_CASE&lt;br&gt;case_id" style="rounded=1;whiteSpace=wrap;html=1;fillColor=#d5e8d4;strokeColor=#82b366;" parent="1" vertex="1">
          <mxGeometry x="60" y="160" width="120" height="60" as="geometry" />
        </mxCell>
        <mxCell id="OfORN7NUINiMixhZLZNA-2" value="T_CLAIM_POLICY" style="rounded=1;whiteSpace=wrap;html=1;fillColor=#d5e8d4;strokeColor=#82b366;" parent="1" vertex="1">
          <mxGeometry x="250" y="60" width="120" height="60" as="geometry" />
        </mxCell>
        <mxCell id="OfORN7NUINiMixhZLZNA-3" value="" style="endArrow=classic;html=1;entryX=1;entryY=0;entryDx=0;entryDy=0;exitX=0;exitY=1;exitDx=0;exitDy=0;" parent="1" source="OfORN7NUINiMixhZLZNA-2" target="OfORN7NUINiMixhZLZNA-1" edge="1">
          <mxGeometry width="50" height="50" relative="1" as="geometry">
            <mxPoint x="460" y="460" as="sourcePoint" />
            <mxPoint x="510" y="410" as="targetPoint" />
          </mxGeometry>
        </mxCell>
        <mxCell id="FIjVFcEKrEzkejblWKOD-24" style="edgeStyle=orthogonalEdgeStyle;rounded=0;orthogonalLoop=1;jettySize=auto;html=1;exitX=0.5;exitY=0;exitDx=0;exitDy=0;" edge="1" parent="1" source="OfORN7NUINiMixhZLZNA-4" target="OfORN7NUINiMixhZLZNA-74">
          <mxGeometry relative="1" as="geometry">
            <Array as="points">
              <mxPoint x="540" y="-30" />
              <mxPoint x="830" y="-30" />
            </Array>
          </mxGeometry>
        </mxCell>
        <mxCell id="FIjVFcEKrEzkejblWKOD-36" style="edgeStyle=orthogonalEdgeStyle;rounded=0;orthogonalLoop=1;jettySize=auto;html=1;exitX=1;exitY=0.75;exitDx=0;exitDy=0;entryX=0.25;entryY=1;entryDx=0;entryDy=0;" edge="1" parent="1" source="OfORN7NUINiMixhZLZNA-4" target="FIjVFcEKrEzkejblWKOD-35">
          <mxGeometry relative="1" as="geometry">
            <Array as="points">
              <mxPoint x="660" y="388" />
              <mxPoint x="660" y="945" />
              <mxPoint x="1805" y="945" />
            </Array>
          </mxGeometry>
        </mxCell>
        <mxCell id="FIjVFcEKrEzkejblWKOD-37" value="apply_code = card_code" style="edgeLabel;html=1;align=center;verticalAlign=middle;resizable=0;points=[];" vertex="1" connectable="0" parent="FIjVFcEKrEzkejblWKOD-36">
          <mxGeometry x="0.1823" y="-2" relative="1" as="geometry">
            <mxPoint as="offset" />
          </mxGeometry>
        </mxCell>
        <mxCell id="OfORN7NUINiMixhZLZNA-4" value="T_CONTRACT_MASTER&lt;br&gt;policy_id&lt;br&gt;&lt;br&gt;bank, re_bank" style="rounded=1;whiteSpace=wrap;html=1;fillColor=#d5e8d4;strokeColor=#82b366;" parent="1" vertex="1">
          <mxGeometry x="460" y="260" width="160" height="170" as="geometry" />
        </mxCell>
        <mxCell id="OfORN7NUINiMixhZLZNA-5" value="" style="endArrow=classic;html=1;entryX=0;entryY=0;entryDx=0;entryDy=0;exitX=1;exitY=1;exitDx=0;exitDy=0;" parent="1" source="OfORN7NUINiMixhZLZNA-2" target="OfORN7NUINiMixhZLZNA-4" edge="1">
          <mxGeometry width="50" height="50" relative="1" as="geometry">
            <mxPoint x="260" y="130" as="sourcePoint" />
            <mxPoint x="190" y="180" as="targetPoint" />
          </mxGeometry>
        </mxCell>
        <mxCell id="FIjVFcEKrEzkejblWKOD-30" style="edgeStyle=orthogonalEdgeStyle;rounded=0;orthogonalLoop=1;jettySize=auto;html=1;exitX=0.25;exitY=1;exitDx=0;exitDy=0;entryX=0.25;entryY=0;entryDx=0;entryDy=0;" edge="1" parent="1" source="OfORN7NUINiMixhZLZNA-6" target="FIjVFcEKrEzkejblWKOD-29">
          <mxGeometry relative="1" as="geometry" />
        </mxCell>
        <mxCell id="FIjVFcEKrEzkejblWKOD-31" value="agency_code = bank_code" style="edgeLabel;html=1;align=center;verticalAlign=middle;resizable=0;points=[];" vertex="1" connectable="0" parent="FIjVFcEKrEzkejblWKOD-30">
          <mxGeometry x="0.0571" y="1" relative="1" as="geometry">
            <mxPoint as="offset" />
          </mxGeometry>
        </mxCell>
        <mxCell id="OfORN7NUINiMixhZLZNA-6" value="T_CONTRACT_PRODUCT&lt;br&gt;item_id&lt;br&gt;&lt;br&gt;bank" style="rounded=1;whiteSpace=wrap;html=1;fillColor=#d5e8d4;strokeColor=#82b366;" parent="1" vertex="1">
          <mxGeometry x="460" y="480" width="160" height="110" as="geometry" />
        </mxCell>
        <mxCell id="OfORN7NUINiMixhZLZNA-7" value="T_PRODUCT_LIFE&lt;br&gt;product_id" style="rounded=1;whiteSpace=wrap;html=1;fillColor=#d5e8d4;strokeColor=#82b366;" parent="1" vertex="1">
          <mxGeometry x="670" y="505" width="160" height="60" as="geometry" />
        </mxCell>
        <mxCell id="OfORN7NUINiMixhZLZNA-8" value="" style="endArrow=classic;html=1;entryX=0.5;entryY=1;entryDx=0;entryDy=0;exitX=0.5;exitY=0;exitDx=0;exitDy=0;" parent="1" source="OfORN7NUINiMixhZLZNA-6" target="OfORN7NUINiMixhZLZNA-4" edge="1">
          <mxGeometry width="50" height="50" relative="1" as="geometry">
            <mxPoint x="410" y="250" as="sourcePoint" />
            <mxPoint x="470" y="290" as="targetPoint" />
          </mxGeometry>
        </mxCell>
        <mxCell id="OfORN7NUINiMixhZLZNA-9" value="" style="endArrow=classic;html=1;entryX=0;entryY=0.5;entryDx=0;entryDy=0;exitX=1;exitY=0.5;exitDx=0;exitDy=0;" parent="1" source="OfORN7NUINiMixhZLZNA-6" target="OfORN7NUINiMixhZLZNA-7" edge="1">
          <mxGeometry width="50" height="50" relative="1" as="geometry">
            <mxPoint x="520" y="370" as="sourcePoint" />
            <mxPoint x="520" y="310" as="targetPoint" />
          </mxGeometry>
        </mxCell>
        <mxCell id="OfORN7NUINiMixhZLZNA-10" value="T_LIABILITY&lt;br&gt;liab_id" style="rounded=1;whiteSpace=wrap;html=1;fillColor=#d5e8d4;strokeColor=#82b366;" parent="1" vertex="1">
          <mxGeometry x="890" y="280" width="160" height="60" as="geometry" />
        </mxCell>
        <mxCell id="OfORN7NUINiMixhZLZNA-11" value="T_CONTRACT_INVEST&lt;br&gt;item_id" style="rounded=1;whiteSpace=wrap;html=1;" parent="1" vertex="1">
          <mxGeometry x="460" y="640" width="160" height="60" as="geometry" />
        </mxCell>
        <mxCell id="OfORN7NUINiMixhZLZNA-12" value="" style="endArrow=classic;startArrow=classic;html=1;entryX=0.5;entryY=1;entryDx=0;entryDy=0;exitX=0.5;exitY=0;exitDx=0;exitDy=0;dashed=1;fillColor=#d5e8d4;strokeColor=#82b366;" parent="1" source="OfORN7NUINiMixhZLZNA-11" target="OfORN7NUINiMixhZLZNA-6" edge="1">
          <mxGeometry width="50" height="50" relative="1" as="geometry">
            <mxPoint x="490" y="640" as="sourcePoint" />
            <mxPoint x="540" y="590" as="targetPoint" />
          </mxGeometry>
        </mxCell>
        <mxCell id="OfORN7NUINiMixhZLZNA-13" value="T_LIABILITY_LIST" style="rounded=1;whiteSpace=wrap;html=1;fillColor=#e1d5e7;strokeColor=#9673a6;dashed=1;dashPattern=1 2;" parent="1" vertex="1">
          <mxGeometry x="670" y="60" width="160" height="60" as="geometry" />
        </mxCell>
        <mxCell id="OfORN7NUINiMixhZLZNA-15" value="" style="endArrow=classic;html=1;entryX=1;entryY=0;entryDx=0;entryDy=0;exitX=0;exitY=1;exitDx=0;exitDy=0;" parent="1" source="OfORN7NUINiMixhZLZNA-13" target="OfORN7NUINiMixhZLZNA-4" edge="1">
          <mxGeometry width="50" height="50" relative="1" as="geometry">
            <mxPoint x="520" y="290" as="sourcePoint" />
            <mxPoint x="520" y="230" as="targetPoint" />
          </mxGeometry>
        </mxCell>
        <mxCell id="OfORN7NUINiMixhZLZNA-16" value="" style="endArrow=classic;html=1;entryX=0.5;entryY=0;entryDx=0;entryDy=0;exitX=0.5;exitY=1;exitDx=0;exitDy=0;" parent="1" source="OfORN7NUINiMixhZLZNA-13" target="OfORN7NUINiMixhZLZNA-7" edge="1">
          <mxGeometry width="50" height="50" relative="1" as="geometry">
            <mxPoint x="680" y="130" as="sourcePoint" />
            <mxPoint x="600" y="170" as="targetPoint" />
          </mxGeometry>
        </mxCell>
        <mxCell id="OfORN7NUINiMixhZLZNA-17" value="" style="endArrow=classic;html=1;entryX=0.5;entryY=0;entryDx=0;entryDy=0;exitX=1;exitY=1;exitDx=0;exitDy=0;" parent="1" source="OfORN7NUINiMixhZLZNA-13" target="OfORN7NUINiMixhZLZNA-10" edge="1">
          <mxGeometry width="50" height="50" relative="1" as="geometry">
            <mxPoint x="760" y="130" as="sourcePoint" />
            <mxPoint x="761.04" y="290" as="targetPoint" />
          </mxGeometry>
        </mxCell>
        <mxCell id="OfORN7NUINiMixhZLZNA-18" value="T_LIABILITY_PAY" style="rounded=1;whiteSpace=wrap;html=1;" parent="1" vertex="1">
          <mxGeometry x="30" y="570" width="160" height="60" as="geometry" />
        </mxCell>
        <mxCell id="OfORN7NUINiMixhZLZNA-19" value="" style="edgeStyle=elbowEdgeStyle;elbow=vertical;endArrow=classic;html=1;entryX=0.5;entryY=1;entryDx=0;entryDy=0;exitX=0;exitY=0.5;exitDx=0;exitDy=0;" parent="1" source="OfORN7NUINiMixhZLZNA-18" target="OfORN7NUINiMixhZLZNA-1" edge="1">
          <mxGeometry width="50" height="50" relative="1" as="geometry">
            <mxPoint x="460" y="450" as="sourcePoint" />
            <mxPoint x="510" y="400" as="targetPoint" />
            <Array as="points">
              <mxPoint x="40" y="410" />
            </Array>
          </mxGeometry>
        </mxCell>
        <mxCell id="OfORN7NUINiMixhZLZNA-22" value="" style="edgeStyle=elbowEdgeStyle;elbow=vertical;endArrow=classic;html=1;entryX=0.544;entryY=0.983;entryDx=0;entryDy=0;exitX=1;exitY=0.5;exitDx=0;exitDy=0;entryPerimeter=0;" parent="1" source="OfORN7NUINiMixhZLZNA-18" target="OfORN7NUINiMixhZLZNA-10" edge="1">
          <mxGeometry width="50" height="50" relative="1" as="geometry">
            <mxPoint x="440" y="635" as="sourcePoint" />
            <mxPoint x="440" y="320" as="targetPoint" />
            <Array as="points">
              <mxPoint x="580" y="730" />
            </Array>
          </mxGeometry>
        </mxCell>
        <mxCell id="OfORN7NUINiMixhZLZNA-23" value="" style="edgeStyle=elbowEdgeStyle;elbow=vertical;endArrow=classic;html=1;entryX=0.5;entryY=1;entryDx=0;entryDy=0;exitX=1;exitY=0.25;exitDx=0;exitDy=0;" parent="1" source="OfORN7NUINiMixhZLZNA-18" target="OfORN7NUINiMixhZLZNA-7" edge="1">
          <mxGeometry width="50" height="50" relative="1" as="geometry">
            <mxPoint x="600" y="650" as="sourcePoint" />
            <mxPoint x="987.04" y="348.98" as="targetPoint" />
            <Array as="points">
              <mxPoint x="460" y="710" />
            </Array>
          </mxGeometry>
        </mxCell>
        <mxCell id="OfORN7NUINiMixhZLZNA-24" value="T_CLAIM_FEE&lt;br&gt;fee_id" style="rounded=1;whiteSpace=wrap;html=1;" parent="1" vertex="1">
          <mxGeometry x="230" y="400" width="160" height="60" as="geometry" />
        </mxCell>
        <mxCell id="OfORN7NUINiMixhZLZNA-25" value="T_PAY_FEE&lt;br&gt;fee_id" style="rounded=1;whiteSpace=wrap;html=1;" parent="1" vertex="1">
          <mxGeometry x="230" y="480" width="160" height="60" as="geometry" />
        </mxCell>
        <mxCell id="OfORN7NUINiMixhZLZNA-26" value="T_LIABILITY_PAY_PARAM" style="rounded=1;whiteSpace=wrap;html=1;" parent="1" vertex="1">
          <mxGeometry x="1060" y="60" width="160" height="60" as="geometry" />
        </mxCell>
        <mxCell id="OfORN7NUINiMixhZLZNA-29" value="T_LIABILITY_CONFIG" style="rounded=1;whiteSpace=wrap;html=1;fillColor=#d5e8d4;strokeColor=#82b366;" parent="1" vertex="1">
          <mxGeometry x="870" y="60" width="160" height="60" as="geometry" />
        </mxCell>
        <mxCell id="OfORN7NUINiMixhZLZNA-31" value="" style="endArrow=classic;html=1;exitX=0.25;exitY=1;exitDx=0;exitDy=0;entryX=1;entryY=0;entryDx=0;entryDy=0;" parent="1" source="OfORN7NUINiMixhZLZNA-29" target="OfORN7NUINiMixhZLZNA-7" edge="1">
          <mxGeometry width="50" height="50" relative="1" as="geometry">
            <mxPoint x="610" y="450" as="sourcePoint" />
            <mxPoint x="660" y="400" as="targetPoint" />
          </mxGeometry>
        </mxCell>
        <mxCell id="OfORN7NUINiMixhZLZNA-32" value="" style="endArrow=classic;html=1;exitX=0.75;exitY=1;exitDx=0;exitDy=0;entryX=0.688;entryY=0;entryDx=0;entryDy=0;entryPerimeter=0;" parent="1" source="OfORN7NUINiMixhZLZNA-29" target="OfORN7NUINiMixhZLZNA-10" edge="1">
          <mxGeometry width="50" height="50" relative="1" as="geometry">
            <mxPoint x="920" y="130" as="sourcePoint" />
            <mxPoint x="850" y="290" as="targetPoint" />
          </mxGeometry>
        </mxCell>
        <mxCell id="OfORN7NUINiMixhZLZNA-33" value="" style="endArrow=classic;html=1;exitX=0;exitY=1;exitDx=0;exitDy=0;entryX=1;entryY=0;entryDx=0;entryDy=0;" parent="1" source="OfORN7NUINiMixhZLZNA-26" target="OfORN7NUINiMixhZLZNA-7" edge="1">
          <mxGeometry width="50" height="50" relative="1" as="geometry">
            <mxPoint x="920" y="130" as="sourcePoint" />
            <mxPoint x="850" y="290" as="targetPoint" />
          </mxGeometry>
        </mxCell>
        <mxCell id="OfORN7NUINiMixhZLZNA-34" value="" style="endArrow=classic;html=1;exitX=0.25;exitY=1;exitDx=0;exitDy=0;entryX=1;entryY=0;entryDx=0;entryDy=0;" parent="1" source="OfORN7NUINiMixhZLZNA-26" target="OfORN7NUINiMixhZLZNA-10" edge="1">
          <mxGeometry width="50" height="50" relative="1" as="geometry">
            <mxPoint x="1070" y="130" as="sourcePoint" />
            <mxPoint x="850" y="290" as="targetPoint" />
          </mxGeometry>
        </mxCell>
        <mxCell id="FIjVFcEKrEzkejblWKOD-27" style="edgeStyle=orthogonalEdgeStyle;rounded=0;orthogonalLoop=1;jettySize=auto;html=1;exitX=0.5;exitY=0;exitDx=0;exitDy=0;entryX=0;entryY=0.25;entryDx=0;entryDy=0;startArrow=classic;startFill=1;endArrow=none;endFill=0;" edge="1" parent="1" source="OfORN7NUINiMixhZLZNA-35" target="FIjVFcEKrEzkejblWKOD-25">
          <mxGeometry relative="1" as="geometry" />
        </mxCell>
        <mxCell id="OfORN7NUINiMixhZLZNA-35" value="T_CUSTOMER&lt;br&gt;customer_id&lt;br&gt;certi_type, certi_code" style="rounded=1;whiteSpace=wrap;html=1;fillColor=#d5e8d4;strokeColor=#82b366;" parent="1" vertex="1">
          <mxGeometry x="590" y="-190" width="120" height="60" as="geometry" />
        </mxCell>
        <mxCell id="OfORN7NUINiMixhZLZNA-36" value="T_EMPLOYEE&lt;br&gt;employee_id&lt;br&gt;certi_type, certi_code" style="rounded=1;whiteSpace=wrap;html=1;fillColor=#d5e8d4;strokeColor=#82b366;" parent="1" vertex="1">
          <mxGeometry x="60" y="-180" width="120" height="60" as="geometry" />
        </mxCell>
        <mxCell id="OfORN7NUINiMixhZLZNA-37" value="T_CONTRACT_BENE&lt;br&gt;certi_type, certi_code" style="rounded=1;whiteSpace=wrap;html=1;fillColor=#f8cecc;strokeColor=#b85450;" parent="1" vertex="1">
          <mxGeometry x="990" y="-190" width="120" height="60" as="geometry" />
        </mxCell>
        <mxCell id="OfORN7NUINiMixhZLZNA-39" value="T_CLAIM_INPATIENT&lt;br&gt;hospitalization_id&lt;br&gt;&lt;br&gt;operation_type(科别)&lt;br&gt;住院人身份证号，年龄，性别" style="rounded=1;whiteSpace=wrap;html=1;fillColor=#d5e8d4;strokeColor=#82b366;" parent="1" vertex="1">
          <mxGeometry x="-160" y="260" width="120" height="90" as="geometry" />
        </mxCell>
        <mxCell id="OfORN7NUINiMixhZLZNA-40" value="T_CLAIM_CLINIC&lt;br&gt;clinic_id&lt;br&gt;&lt;br&gt;" style="rounded=1;whiteSpace=wrap;html=1;fillColor=#d5e8d4;strokeColor=#82b366;" parent="1" vertex="1">
          <mxGeometry x="-160" y="60" width="120" height="60" as="geometry" />
        </mxCell>
        <mxCell id="OfORN7NUINiMixhZLZNA-41" value="" style="endArrow=classic;html=1;exitX=1;exitY=0.5;exitDx=0;exitDy=0;entryX=0;entryY=0.75;entryDx=0;entryDy=0;" parent="1" source="OfORN7NUINiMixhZLZNA-39" target="OfORN7NUINiMixhZLZNA-1" edge="1">
          <mxGeometry width="50" height="50" relative="1" as="geometry">
            <mxPoint x="260" y="130" as="sourcePoint" />
            <mxPoint x="60" y="190" as="targetPoint" />
          </mxGeometry>
        </mxCell>
        <mxCell id="OfORN7NUINiMixhZLZNA-42" value="" style="endArrow=classic;html=1;exitX=1;exitY=0.5;exitDx=0;exitDy=0;entryX=0;entryY=0.25;entryDx=0;entryDy=0;" parent="1" source="OfORN7NUINiMixhZLZNA-40" target="OfORN7NUINiMixhZLZNA-1" edge="1">
          <mxGeometry width="50" height="50" relative="1" as="geometry">
            <mxPoint x="-30" y="200" as="sourcePoint" />
            <mxPoint x="70" y="200" as="targetPoint" />
          </mxGeometry>
        </mxCell>
        <mxCell id="OfORN7NUINiMixhZLZNA-44" value="T_CLAIM_SICK_CAUSE" style="rounded=1;whiteSpace=wrap;html=1;fillColor=#d5e8d4;strokeColor=#82b366;" parent="1" vertex="1">
          <mxGeometry x="-440" y="180" width="185" height="60" as="geometry" />
        </mxCell>
        <mxCell id="OfORN7NUINiMixhZLZNA-45" value="" style="endArrow=classic;html=1;exitX=1;exitY=0;exitDx=0;exitDy=0;entryX=0;entryY=0.5;entryDx=0;entryDy=0;fillColor=#d5e8d4;strokeColor=#82b366;" parent="1" source="OfORN7NUINiMixhZLZNA-44" target="OfORN7NUINiMixhZLZNA-40" edge="1">
          <mxGeometry width="50" height="50" relative="1" as="geometry">
            <mxPoint x="-30" y="100" as="sourcePoint" />
            <mxPoint x="70" y="185" as="targetPoint" />
          </mxGeometry>
        </mxCell>
        <mxCell id="OfORN7NUINiMixhZLZNA-46" value="" style="endArrow=classic;html=1;exitX=1;exitY=1;exitDx=0;exitDy=0;entryX=0;entryY=0.5;entryDx=0;entryDy=0;fillColor=#d5e8d4;strokeColor=#82b366;" parent="1" source="OfORN7NUINiMixhZLZNA-44" target="OfORN7NUINiMixhZLZNA-39" edge="1">
          <mxGeometry width="50" height="50" relative="1" as="geometry">
            <mxPoint x="-245" y="170" as="sourcePoint" />
            <mxPoint x="-150" y="100" as="targetPoint" />
          </mxGeometry>
        </mxCell>
        <mxCell id="OfORN7NUINiMixhZLZNA-47" value="T_CLAIM_CLINIC_OPERATION" style="rounded=1;whiteSpace=wrap;html=1;fillColor=#d5e8d4;strokeColor=#82b366;" parent="1" vertex="1">
          <mxGeometry x="-440" y="255" width="185" height="60" as="geometry" />
        </mxCell>
        <mxCell id="OfORN7NUINiMixhZLZNA-48" value="" style="endArrow=classic;html=1;exitX=1;exitY=1;exitDx=0;exitDy=0;fillColor=#d5e8d4;strokeColor=#82b366;" parent="1" source="OfORN7NUINiMixhZLZNA-47" edge="1">
          <mxGeometry width="50" height="50" relative="1" as="geometry">
            <mxPoint x="-245" y="240" as="sourcePoint" />
            <mxPoint x="-160" y="320" as="targetPoint" />
          </mxGeometry>
        </mxCell>
        <mxCell id="OfORN7NUINiMixhZLZNA-49" value="" style="endArrow=classic;html=1;exitX=0.968;exitY=0.017;exitDx=0;exitDy=0;entryX=0;entryY=0.75;entryDx=0;entryDy=0;exitPerimeter=0;fillColor=#d5e8d4;strokeColor=#82b366;" parent="1" source="OfORN7NUINiMixhZLZNA-47" target="OfORN7NUINiMixhZLZNA-40" edge="1">
          <mxGeometry width="50" height="50" relative="1" as="geometry">
            <mxPoint x="-245" y="330" as="sourcePoint" />
            <mxPoint x="-150" y="330" as="targetPoint" />
          </mxGeometry>
        </mxCell>
        <mxCell id="OfORN7NUINiMixhZLZNA-50" value="T_UW_PRODUCT" style="rounded=1;whiteSpace=wrap;html=1;fillColor=#d5e8d4;strokeColor=#82b366;" parent="1" vertex="1">
          <mxGeometry x="900" y="770" width="160" height="60" as="geometry" />
        </mxCell>
        <mxCell id="OfORN7NUINiMixhZLZNA-52" value="T_UW_POLICY" style="rounded=1;whiteSpace=wrap;html=1;fillColor=#d5e8d4;strokeColor=#82b366;" parent="1" vertex="1">
          <mxGeometry x="900" y="840" width="160" height="60" as="geometry" />
        </mxCell>
        <mxCell id="OfORN7NUINiMixhZLZNA-54" value="" style="edgeStyle=elbowEdgeStyle;elbow=horizontal;endArrow=classic;html=1;entryX=1;entryY=0.75;entryDx=0;entryDy=0;" parent="1" source="OfORN7NUINiMixhZLZNA-50" target="OfORN7NUINiMixhZLZNA-6" edge="1">
          <mxGeometry width="50" height="50" relative="1" as="geometry">
            <mxPoint x="670" y="440" as="sourcePoint" />
            <mxPoint x="720" y="390" as="targetPoint" />
            <Array as="points">
              <mxPoint x="630" y="530" />
            </Array>
          </mxGeometry>
        </mxCell>
        <mxCell id="OfORN7NUINiMixhZLZNA-55" value="" style="edgeStyle=elbowEdgeStyle;elbow=horizontal;endArrow=classic;html=1;exitX=0;exitY=0.5;exitDx=0;exitDy=0;entryX=1;entryY=0.5;entryDx=0;entryDy=0;" parent="1" source="OfORN7NUINiMixhZLZNA-52" target="OfORN7NUINiMixhZLZNA-4" edge="1">
          <mxGeometry width="50" height="50" relative="1" as="geometry">
            <mxPoint x="880" y="800" as="sourcePoint" />
            <mxPoint x="600" y="335" as="targetPoint" />
            <Array as="points">
              <mxPoint x="640" y="540" />
            </Array>
          </mxGeometry>
        </mxCell>
        <mxCell id="OfORN7NUINiMixhZLZNA-56" value="" style="edgeStyle=elbowEdgeStyle;elbow=vertical;endArrow=classic;html=1;exitX=0.5;exitY=0;exitDx=0;exitDy=0;entryX=0.25;entryY=1;entryDx=0;entryDy=0;" parent="1" source="OfORN7NUINiMixhZLZNA-4" target="OfORN7NUINiMixhZLZNA-35" edge="1">
          <mxGeometry width="50" height="50" relative="1" as="geometry">
            <mxPoint x="740" y="190" as="sourcePoint" />
            <mxPoint x="790" y="140" as="targetPoint" />
            <Array as="points">
              <mxPoint x="530" y="-100" />
            </Array>
          </mxGeometry>
        </mxCell>
        <mxCell id="OfORN7NUINiMixhZLZNA-57" value="applicant_id" style="edgeLabel;html=1;align=center;verticalAlign=middle;resizable=0;points=[];" parent="OfORN7NUINiMixhZLZNA-56" vertex="1" connectable="0">
          <mxGeometry x="-0.0917" relative="1" as="geometry">
            <mxPoint as="offset" />
          </mxGeometry>
        </mxCell>
        <mxCell id="OfORN7NUINiMixhZLZNA-63" value="relation_1" style="ellipse;whiteSpace=wrap;html=1;aspect=fixed;fillColor=#d5e8d4;strokeColor=#82b366;" parent="1" vertex="1">
          <mxGeometry x="380" y="-200" width="80" height="80" as="geometry" />
        </mxCell>
        <mxCell id="OfORN7NUINiMixhZLZNA-65" value="" style="edgeStyle=elbowEdgeStyle;elbow=vertical;endArrow=classic;html=1;exitX=0;exitY=0.25;exitDx=0;exitDy=0;entryX=0.5;entryY=1;entryDx=0;entryDy=0;" parent="1" source="OfORN7NUINiMixhZLZNA-6" target="OfORN7NUINiMixhZLZNA-63" edge="1">
          <mxGeometry width="50" height="50" relative="1" as="geometry">
            <mxPoint x="550" y="160" as="sourcePoint" />
            <mxPoint x="600" y="110" as="targetPoint" />
            <Array as="points">
              <mxPoint x="440" y="510" />
            </Array>
          </mxGeometry>
        </mxCell>
        <mxCell id="OfORN7NUINiMixhZLZNA-66" value="" style="edgeStyle=elbowEdgeStyle;elbow=vertical;endArrow=classic;html=1;exitX=0.25;exitY=0;exitDx=0;exitDy=0;entryX=0.5;entryY=1;entryDx=0;entryDy=0;" parent="1" source="OfORN7NUINiMixhZLZNA-6" target="OfORN7NUINiMixhZLZNA-35" edge="1">
          <mxGeometry width="50" height="50" relative="1" as="geometry">
            <mxPoint x="472.96000000000004" y="170" as="sourcePoint" />
            <mxPoint x="290" y="-80" as="targetPoint" />
            <Array as="points">
              <mxPoint x="570" y="-50" />
            </Array>
          </mxGeometry>
        </mxCell>
        <mxCell id="OfORN7NUINiMixhZLZNA-67" value="insured_1" style="edgeLabel;html=1;align=center;verticalAlign=middle;resizable=0;points=[];" parent="OfORN7NUINiMixhZLZNA-66" vertex="1" connectable="0">
          <mxGeometry x="-0.0917" relative="1" as="geometry">
            <mxPoint as="offset" />
          </mxGeometry>
        </mxCell>
        <mxCell id="OfORN7NUINiMixhZLZNA-68" value="" style="edgeStyle=elbowEdgeStyle;elbow=vertical;endArrow=classic;html=1;exitX=0.75;exitY=0;exitDx=0;exitDy=0;entryX=0.75;entryY=1;entryDx=0;entryDy=0;" parent="1" source="OfORN7NUINiMixhZLZNA-6" target="OfORN7NUINiMixhZLZNA-35" edge="1">
          <mxGeometry width="50" height="50" relative="1" as="geometry">
            <mxPoint x="520" y="170" as="sourcePoint" />
            <mxPoint x="320" y="-80" as="targetPoint" />
            <Array as="points">
              <mxPoint x="620" />
              <mxPoint x="420" y="20" />
            </Array>
          </mxGeometry>
        </mxCell>
        <mxCell id="OfORN7NUINiMixhZLZNA-69" value="insured_2" style="edgeLabel;html=1;align=center;verticalAlign=middle;resizable=0;points=[];fontColor=#FF0D2D;" parent="OfORN7NUINiMixhZLZNA-68" vertex="1" connectable="0">
          <mxGeometry x="-0.0917" relative="1" as="geometry">
            <mxPoint as="offset" />
          </mxGeometry>
        </mxCell>
        <mxCell id="OfORN7NUINiMixhZLZNA-71" value="" style="edgeStyle=elbowEdgeStyle;elbow=vertical;endArrow=classic;html=1;exitX=0.5;exitY=0;exitDx=0;exitDy=0;entryX=0.25;entryY=0;entryDx=0;entryDy=0;" parent="1" source="OfORN7NUINiMixhZLZNA-63" target="OfORN7NUINiMixhZLZNA-35" edge="1">
          <mxGeometry width="50" height="50" relative="1" as="geometry">
            <mxPoint x="150" y="-220" as="sourcePoint" />
            <mxPoint x="200" y="-270" as="targetPoint" />
            <Array as="points">
              <mxPoint x="490" y="-230" />
            </Array>
          </mxGeometry>
        </mxCell>
        <mxCell id="OfORN7NUINiMixhZLZNA-73" value="" style="endArrow=classic;html=1;exitX=1;exitY=0.5;exitDx=0;exitDy=0;entryX=0;entryY=0.5;entryDx=0;entryDy=0;" parent="1" source="OfORN7NUINiMixhZLZNA-63" target="OfORN7NUINiMixhZLZNA-35" edge="1">
          <mxGeometry width="50" height="50" relative="1" as="geometry">
            <mxPoint x="550" y="160" as="sourcePoint" />
            <mxPoint x="600" y="110" as="targetPoint" />
          </mxGeometry>
        </mxCell>
        <mxCell id="FIjVFcEKrEzkejblWKOD-21" style="edgeStyle=orthogonalEdgeStyle;rounded=0;orthogonalLoop=1;jettySize=auto;html=1;exitX=0.5;exitY=0;exitDx=0;exitDy=0;" edge="1" parent="1" source="OfORN7NUINiMixhZLZNA-74" target="FIjVFcEKrEzkejblWKOD-20">
          <mxGeometry relative="1" as="geometry" />
        </mxCell>
        <mxCell id="OfORN7NUINiMixhZLZNA-74" value="T_AGENT&lt;br&gt;agent_id&lt;br&gt;certi_type, certi_code" style="rounded=1;whiteSpace=wrap;html=1;fillColor=#d5e8d4;strokeColor=#82b366;" parent="1" vertex="1">
          <mxGeometry x="770" y="-190" width="120" height="60" as="geometry" />
        </mxCell>
        <mxCell id="OfORN7NUINiMixhZLZNA-75" value="" style="endArrow=classic;html=1;fontColor=#FF0D2D;exitX=0.75;exitY=0;exitDx=0;exitDy=0;entryX=0.75;entryY=1;entryDx=0;entryDy=0;" parent="1" source="OfORN7NUINiMixhZLZNA-1" target="OfORN7NUINiMixhZLZNA-36" edge="1">
          <mxGeometry width="50" height="50" relative="1" as="geometry">
            <mxPoint x="200" y="-10" as="sourcePoint" />
            <mxPoint x="250" y="-60" as="targetPoint" />
          </mxGeometry>
        </mxCell>
        <mxCell id="OfORN7NUINiMixhZLZNA-77" value="&lt;span style=&quot;color: rgb(0 , 0 , 0)&quot;&gt;accepter&lt;/span&gt;" style="edgeLabel;html=1;align=center;verticalAlign=middle;resizable=0;points=[];fontColor=#FF0D2D;" parent="OfORN7NUINiMixhZLZNA-75" vertex="1" connectable="0">
          <mxGeometry x="-0.1" y="-2" relative="1" as="geometry">
            <mxPoint as="offset" />
          </mxGeometry>
        </mxCell>
        <mxCell id="OfORN7NUINiMixhZLZNA-76" value="&lt;font color=&quot;#000000&quot;&gt;register&lt;/font&gt;" style="endArrow=classic;html=1;fontColor=#FF0D2D;exitX=0.5;exitY=0;exitDx=0;exitDy=0;entryX=0.5;entryY=1;entryDx=0;entryDy=0;" parent="1" source="OfORN7NUINiMixhZLZNA-1" target="OfORN7NUINiMixhZLZNA-36" edge="1">
          <mxGeometry width="50" height="50" relative="1" as="geometry">
            <mxPoint x="100" y="160" as="sourcePoint" />
            <mxPoint x="100" y="-120" as="targetPoint" />
          </mxGeometry>
        </mxCell>
        <mxCell id="OfORN7NUINiMixhZLZNA-78" value="T_POLICY_FEE&lt;br&gt;fee_id&lt;br&gt;&lt;br&gt;bank" style="rounded=1;whiteSpace=wrap;html=1;fillColor=#d5e8d4;strokeColor=#82b366;" parent="1" vertex="1">
          <mxGeometry x="230" y="315" width="160" height="60" as="geometry" />
        </mxCell>
        <mxCell id="OfORN7NUINiMixhZLZNA-79" value="" style="endArrow=classic;html=1;entryX=0;entryY=0.5;entryDx=0;entryDy=0;exitX=1;exitY=0.5;exitDx=0;exitDy=0;" parent="1" source="OfORN7NUINiMixhZLZNA-78" target="OfORN7NUINiMixhZLZNA-4" edge="1">
          <mxGeometry width="50" height="50" relative="1" as="geometry">
            <mxPoint x="630" y="545" as="sourcePoint" />
            <mxPoint x="680" y="545" as="targetPoint" />
          </mxGeometry>
        </mxCell>
        <mxCell id="OfORN7NUINiMixhZLZNA-80" value="" style="edgeStyle=elbowEdgeStyle;elbow=horizontal;endArrow=classic;html=1;fontColor=#FF0D2D;exitX=1;exitY=0.25;exitDx=0;exitDy=0;entryX=0;entryY=0.75;entryDx=0;entryDy=0;" parent="1" source="OfORN7NUINiMixhZLZNA-18" target="OfORN7NUINiMixhZLZNA-6" edge="1">
          <mxGeometry width="50" height="50" relative="1" as="geometry">
            <mxPoint x="490" y="530" as="sourcePoint" />
            <mxPoint x="540" y="480" as="targetPoint" />
          </mxGeometry>
        </mxCell>
        <mxCell id="OfORN7NUINiMixhZLZNA-81" value="T_HOSPITAL&lt;br&gt;hospital_code" style="rounded=1;whiteSpace=wrap;html=1;fillColor=#d5e8d4;strokeColor=#82b366;" parent="1" vertex="1">
          <mxGeometry x="-440" y="100" width="180" height="60" as="geometry" />
        </mxCell>
        <mxCell id="OfORN7NUINiMixhZLZNA-82" value="" style="edgeStyle=elbowEdgeStyle;elbow=vertical;endArrow=classic;html=1;fontColor=#FF0D2D;exitX=0.5;exitY=1;exitDx=0;exitDy=0;entryX=0.906;entryY=0.012;entryDx=0;entryDy=0;entryPerimeter=0;" parent="1" source="OfORN7NUINiMixhZLZNA-37" target="OfORN7NUINiMixhZLZNA-4" edge="1">
          <mxGeometry width="50" height="50" relative="1" as="geometry">
            <mxPoint x="750" y="200" as="sourcePoint" />
            <mxPoint x="800" y="150" as="targetPoint" />
            <Array as="points">
              <mxPoint x="830" y="40" />
            </Array>
          </mxGeometry>
        </mxCell>
        <mxCell id="OfORN7NUINiMixhZLZNA-84" value="" style="endArrow=classic;html=1;exitX=1;exitY=0;exitDx=0;exitDy=0;fillColor=#d5e8d4;strokeColor=#82b366;entryX=0;entryY=0.333;entryDx=0;entryDy=0;entryPerimeter=0;" parent="1" source="OfORN7NUINiMixhZLZNA-81" target="OfORN7NUINiMixhZLZNA-40" edge="1">
          <mxGeometry width="50" height="50" relative="1" as="geometry">
            <mxPoint x="-245" y="170" as="sourcePoint" />
            <mxPoint x="-160" y="90" as="targetPoint" />
          </mxGeometry>
        </mxCell>
        <mxCell id="OfORN7NUINiMixhZLZNA-85" value="" style="endArrow=classic;html=1;exitX=1;exitY=1;exitDx=0;exitDy=0;fillColor=#d5e8d4;strokeColor=#82b366;entryX=0.008;entryY=0.333;entryDx=0;entryDy=0;entryPerimeter=0;" parent="1" source="OfORN7NUINiMixhZLZNA-81" target="OfORN7NUINiMixhZLZNA-39" edge="1">
          <mxGeometry width="50" height="50" relative="1" as="geometry">
            <mxPoint x="-250" y="50" as="sourcePoint" />
            <mxPoint x="-150" y="100" as="targetPoint" />
          </mxGeometry>
        </mxCell>
        <mxCell id="OfORN7NUINiMixhZLZNA-86" value="&lt;font color=&quot;#000000&quot;&gt;T_INVG_MAIN&lt;br&gt;invg_id&lt;br&gt;&lt;/font&gt;" style="rounded=1;whiteSpace=wrap;html=1;fillColor=#d5e8d4;strokeColor=#82b366;" parent="1" vertex="1">
          <mxGeometry x="-160" y="600" width="120" height="60" as="geometry" />
        </mxCell>
        <mxCell id="OfORN7NUINiMixhZLZNA-87" value="T_INVG_TASK&lt;br&gt;task_id&lt;br&gt;&lt;font color=&quot;#ff8000&quot;&gt;task_type？&lt;/font&gt;" style="rounded=1;whiteSpace=wrap;html=1;fillColor=#d5e8d4;strokeColor=#82b366;" parent="1" vertex="1">
          <mxGeometry x="-160" y="700" width="120" height="60" as="geometry" />
        </mxCell>
        <mxCell id="OfORN7NUINiMixhZLZNA-88" value="&lt;font color=&quot;#000000&quot;&gt;T_INVG_ACTIVITY&lt;br&gt;&lt;/font&gt;activity_id&lt;font color=&quot;#000000&quot;&gt;&lt;br&gt;&lt;/font&gt;" style="rounded=1;whiteSpace=wrap;html=1;fillColor=#d5e8d4;strokeColor=#82b366;" parent="1" vertex="1">
          <mxGeometry x="-160" y="790" width="120" height="60" as="geometry" />
        </mxCell>
        <mxCell id="OfORN7NUINiMixhZLZNA-89" value="&lt;font color=&quot;#000000&quot;&gt;T_INVG_ASSIGNMENT&lt;br&gt;&lt;/font&gt;assign_id&lt;font color=&quot;#000000&quot;&gt;&lt;br&gt;&lt;br&gt;&lt;/font&gt;" style="rounded=1;whiteSpace=wrap;html=1;fillColor=#d5e8d4;strokeColor=#82b366;" parent="1" vertex="1">
          <mxGeometry x="-400" y="700" width="150" height="60" as="geometry" />
        </mxCell>
        <mxCell id="OfORN7NUINiMixhZLZNA-90" value="" style="edgeStyle=elbowEdgeStyle;elbow=vertical;endArrow=classic;html=1;fontColor=#FF0D2D;exitX=0.5;exitY=0;exitDx=0;exitDy=0;entryX=0.25;entryY=1;entryDx=0;entryDy=0;" parent="1" source="OfORN7NUINiMixhZLZNA-86" target="OfORN7NUINiMixhZLZNA-1" edge="1">
          <mxGeometry width="50" height="50" relative="1" as="geometry">
            <mxPoint x="350" y="280" as="sourcePoint" />
            <mxPoint x="400" y="230" as="targetPoint" />
            <Array as="points">
              <mxPoint y="380" />
            </Array>
          </mxGeometry>
        </mxCell>
        <mxCell id="OfORN7NUINiMixhZLZNA-91" value="" style="edgeStyle=elbowEdgeStyle;elbow=vertical;endArrow=classic;html=1;fontColor=#FF0D2D;exitX=0.65;exitY=0.017;exitDx=0;exitDy=0;exitPerimeter=0;" parent="1" source="OfORN7NUINiMixhZLZNA-86" target="OfORN7NUINiMixhZLZNA-4" edge="1">
          <mxGeometry width="50" height="50" relative="1" as="geometry">
            <mxPoint x="-90" y="620" as="sourcePoint" />
            <mxPoint x="160" y="345" as="targetPoint" />
            <Array as="points">
              <mxPoint x="10" y="390" />
            </Array>
          </mxGeometry>
        </mxCell>
        <mxCell id="OfORN7NUINiMixhZLZNA-93" value="" style="endArrow=classic;html=1;fontColor=#FF0D2D;exitX=0.5;exitY=0;exitDx=0;exitDy=0;endFill=1;startArrow=classic;startFill=1;" parent="1" source="OfORN7NUINiMixhZLZNA-87" edge="1">
          <mxGeometry width="50" height="50" relative="1" as="geometry">
            <mxPoint x="10" y="530" as="sourcePoint" />
            <mxPoint x="-100" y="660" as="targetPoint" />
          </mxGeometry>
        </mxCell>
        <mxCell id="OfORN7NUINiMixhZLZNA-94" value="" style="edgeStyle=elbowEdgeStyle;elbow=horizontal;endArrow=classic;html=1;fontColor=#FF0D2D;entryX=0;entryY=0.5;entryDx=0;entryDy=0;exitX=0;exitY=0.5;exitDx=0;exitDy=0;" parent="1" source="OfORN7NUINiMixhZLZNA-87" target="OfORN7NUINiMixhZLZNA-36" edge="1">
          <mxGeometry width="50" height="50" relative="1" as="geometry">
            <mxPoint x="10" y="370" as="sourcePoint" />
            <mxPoint x="60" y="320" as="targetPoint" />
            <Array as="points">
              <mxPoint x="-210" y="300" />
            </Array>
          </mxGeometry>
        </mxCell>
        <mxCell id="OfORN7NUINiMixhZLZNA-95" value="&lt;font color=&quot;#000000&quot;&gt;INVG_EMP_ID&lt;/font&gt;" style="edgeLabel;html=1;align=center;verticalAlign=middle;resizable=0;points=[];fontColor=#FF0D2D;" parent="OfORN7NUINiMixhZLZNA-94" vertex="1" connectable="0">
          <mxGeometry x="-0.515" y="1" relative="1" as="geometry">
            <mxPoint as="offset" />
          </mxGeometry>
        </mxCell>
        <mxCell id="OfORN7NUINiMixhZLZNA-96" value="" style="edgeStyle=segmentEdgeStyle;endArrow=classic;html=1;fontColor=#FF0D2D;exitX=0;exitY=0.5;exitDx=0;exitDy=0;entryX=0.5;entryY=1;entryDx=0;entryDy=0;" parent="1" source="OfORN7NUINiMixhZLZNA-88" target="OfORN7NUINiMixhZLZNA-89" edge="1">
          <mxGeometry width="50" height="50" relative="1" as="geometry">
            <mxPoint x="10" y="560" as="sourcePoint" />
            <mxPoint x="60" y="510" as="targetPoint" />
          </mxGeometry>
        </mxCell>
        <mxCell id="OfORN7NUINiMixhZLZNA-97" value="" style="edgeStyle=segmentEdgeStyle;endArrow=classic;html=1;fontColor=#FF0D2D;exitX=0.75;exitY=0;exitDx=0;exitDy=0;entryX=0;entryY=0.5;entryDx=0;entryDy=0;" parent="1" source="OfORN7NUINiMixhZLZNA-89" target="OfORN7NUINiMixhZLZNA-86" edge="1">
          <mxGeometry width="50" height="50" relative="1" as="geometry">
            <mxPoint x="-150" y="830" as="sourcePoint" />
            <mxPoint x="-315" y="770" as="targetPoint" />
            <Array as="points">
              <mxPoint x="-287" y="630" />
            </Array>
          </mxGeometry>
        </mxCell>
        <mxCell id="OfORN7NUINiMixhZLZNA-98" value="" style="edgeStyle=segmentEdgeStyle;endArrow=classic;html=1;fontColor=#FF0D2D;exitX=0.5;exitY=0;exitDx=0;exitDy=0;entryX=0;entryY=0.25;entryDx=0;entryDy=0;" parent="1" source="OfORN7NUINiMixhZLZNA-89" target="OfORN7NUINiMixhZLZNA-36" edge="1">
          <mxGeometry width="50" height="50" relative="1" as="geometry">
            <mxPoint x="-277.5" y="710" as="sourcePoint" />
            <mxPoint x="-150" y="640" as="targetPoint" />
            <Array as="points">
              <mxPoint x="-325" y="-165" />
            </Array>
          </mxGeometry>
        </mxCell>
        <mxCell id="OfORN7NUINiMixhZLZNA-99" value="&lt;span style=&quot;color: rgb(0 , 0 , 0)&quot;&gt;INVG_EMP_ID&lt;/span&gt;" style="edgeLabel;html=1;align=center;verticalAlign=middle;resizable=0;points=[];fontColor=#FF0D2D;" parent="OfORN7NUINiMixhZLZNA-98" vertex="1" connectable="0">
          <mxGeometry x="-0.7216" y="2" relative="1" as="geometry">
            <mxPoint as="offset" />
          </mxGeometry>
        </mxCell>
        <mxCell id="OfORN7NUINiMixhZLZNA-100" value="&lt;font color=&quot;#000000&quot;&gt;T_INVG_INTIME_SUPERVISE&lt;/font&gt;" style="rounded=1;whiteSpace=wrap;html=1;fontColor=#FF0D2D;" parent="1" vertex="1">
          <mxGeometry x="40" y="890" width="170" height="60" as="geometry" />
        </mxCell>
        <mxCell id="OfORN7NUINiMixhZLZNA-101" value="&lt;font color=&quot;#000000&quot;&gt;T_INVG_DETAIL&lt;/font&gt;" style="rounded=1;whiteSpace=wrap;html=1;fillColor=#d5e8d4;strokeColor=#82b366;" parent="1" vertex="1">
          <mxGeometry x="40" y="980" width="170" height="60" as="geometry" />
        </mxCell>
        <mxCell id="OfORN7NUINiMixhZLZNA-102" value="&lt;font color=&quot;#000000&quot;&gt;T_INVG_PROCESS&lt;/font&gt;" style="rounded=1;whiteSpace=wrap;html=1;fontColor=#FF0D2D;" parent="1" vertex="1">
          <mxGeometry x="40" y="1060" width="170" height="60" as="geometry" />
        </mxCell>
        <mxCell id="OfORN7NUINiMixhZLZNA-103" value="&lt;font color=&quot;#000000&quot;&gt;T_INVG_REPORT&lt;/font&gt;" style="rounded=1;whiteSpace=wrap;html=1;fillColor=#d5e8d4;strokeColor=#82b366;" parent="1" vertex="1">
          <mxGeometry x="40" y="1140" width="170" height="60" as="geometry" />
        </mxCell>
        <mxCell id="OfORN7NUINiMixhZLZNA-104" value="" style="edgeStyle=elbowEdgeStyle;elbow=horizontal;endArrow=classic;html=1;fontColor=#FF0D2D;exitX=0;exitY=0.5;exitDx=0;exitDy=0;" parent="1" source="OfORN7NUINiMixhZLZNA-100" target="OfORN7NUINiMixhZLZNA-87" edge="1">
          <mxGeometry width="50" height="50" relative="1" as="geometry">
            <mxPoint x="10" y="820" as="sourcePoint" />
            <mxPoint x="60" y="770" as="targetPoint" />
          </mxGeometry>
        </mxCell>
        <mxCell id="OfORN7NUINiMixhZLZNA-105" value="" style="edgeStyle=elbowEdgeStyle;elbow=horizontal;endArrow=classic;html=1;fontColor=#FF0D2D;exitX=0;exitY=0.5;exitDx=0;exitDy=0;" parent="1" source="OfORN7NUINiMixhZLZNA-101" edge="1">
          <mxGeometry width="50" height="50" relative="1" as="geometry">
            <mxPoint x="50" y="930" as="sourcePoint" />
            <mxPoint x="-40" y="730" as="targetPoint" />
          </mxGeometry>
        </mxCell>
        <mxCell id="OfORN7NUINiMixhZLZNA-106" value="" style="edgeStyle=elbowEdgeStyle;elbow=horizontal;endArrow=classic;html=1;fontColor=#FF0D2D;exitX=0;exitY=0.5;exitDx=0;exitDy=0;" parent="1" source="OfORN7NUINiMixhZLZNA-102" edge="1">
          <mxGeometry width="50" height="50" relative="1" as="geometry">
            <mxPoint x="60" y="940" as="sourcePoint" />
            <mxPoint x="-40" y="730" as="targetPoint" />
          </mxGeometry>
        </mxCell>
        <mxCell id="OfORN7NUINiMixhZLZNA-107" value="" style="edgeStyle=elbowEdgeStyle;elbow=horizontal;endArrow=classic;html=1;fontColor=#FF0D2D;exitX=0;exitY=0.5;exitDx=0;exitDy=0;" parent="1" source="OfORN7NUINiMixhZLZNA-103" edge="1">
          <mxGeometry width="50" height="50" relative="1" as="geometry">
            <mxPoint x="70" y="950" as="sourcePoint" />
            <mxPoint x="-40" y="730" as="targetPoint" />
          </mxGeometry>
        </mxCell>
        <mxCell id="OfORN7NUINiMixhZLZNA-108" value="" style="edgeStyle=segmentEdgeStyle;endArrow=classic;html=1;fontColor=#FF0D2D;entryX=0.75;entryY=1;entryDx=0;entryDy=0;" parent="1" target="OfORN7NUINiMixhZLZNA-89" edge="1">
          <mxGeometry width="50" height="50" relative="1" as="geometry">
            <mxPoint x="40" y="1010" as="sourcePoint" />
            <mxPoint x="60" y="770" as="targetPoint" />
          </mxGeometry>
        </mxCell>
        <mxCell id="OfORN7NUINiMixhZLZNA-109" value="" style="edgeStyle=segmentEdgeStyle;endArrow=classic;html=1;fontColor=#FF0D2D;exitX=0;exitY=0.5;exitDx=0;exitDy=0;" parent="1" source="OfORN7NUINiMixhZLZNA-101" edge="1">
          <mxGeometry width="50" height="50" relative="1" as="geometry">
            <mxPoint x="50" y="1020" as="sourcePoint" />
            <mxPoint x="-100" y="850" as="targetPoint" />
          </mxGeometry>
        </mxCell>
        <mxCell id="OfORN7NUINiMixhZLZNA-110" value="" style="edgeStyle=segmentEdgeStyle;endArrow=classic;html=1;fontColor=#FF0D2D;exitX=0;exitY=0.5;exitDx=0;exitDy=0;entryX=0.5;entryY=1;entryDx=0;entryDy=0;" parent="1" source="OfORN7NUINiMixhZLZNA-102" target="OfORN7NUINiMixhZLZNA-88" edge="1">
          <mxGeometry width="50" height="50" relative="1" as="geometry">
            <mxPoint x="50" y="1020" as="sourcePoint" />
            <mxPoint x="-90" y="860" as="targetPoint" />
          </mxGeometry>
        </mxCell>
        <mxCell id="OfORN7NUINiMixhZLZNA-111" value="" style="edgeStyle=segmentEdgeStyle;endArrow=classic;html=1;fontColor=#FF0D2D;exitX=0;exitY=0.5;exitDx=0;exitDy=0;entryX=0.75;entryY=1;entryDx=0;entryDy=0;" parent="1" source="OfORN7NUINiMixhZLZNA-102" target="OfORN7NUINiMixhZLZNA-89" edge="1">
          <mxGeometry width="50" height="50" relative="1" as="geometry">
            <mxPoint x="50" y="1100" as="sourcePoint" />
            <mxPoint x="-90" y="860" as="targetPoint" />
          </mxGeometry>
        </mxCell>
        <mxCell id="OfORN7NUINiMixhZLZNA-112" value="&lt;font color=&quot;#000000&quot;&gt;T_INVG_ASSIGN_CONFIG&lt;br&gt;config_id&lt;br&gt;&lt;/font&gt;" style="rounded=1;whiteSpace=wrap;html=1;fontColor=#FF0D2D;" parent="1" vertex="1">
          <mxGeometry x="-540" y="880" width="170" height="60" as="geometry" />
        </mxCell>
        <mxCell id="OfORN7NUINiMixhZLZNA-113" value="" style="edgeStyle=elbowEdgeStyle;elbow=vertical;endArrow=classic;html=1;fontColor=#FF0D2D;exitX=0.3;exitY=0.983;exitDx=0;exitDy=0;exitPerimeter=0;entryX=0.5;entryY=0;entryDx=0;entryDy=0;" parent="1" source="OfORN7NUINiMixhZLZNA-89" target="OfORN7NUINiMixhZLZNA-112" edge="1">
          <mxGeometry width="50" height="50" relative="1" as="geometry">
            <mxPoint x="10" y="810" as="sourcePoint" />
            <mxPoint x="60" y="760" as="targetPoint" />
          </mxGeometry>
        </mxCell>
        <mxCell id="h2e9kf0k5CXDEQpsHMj4-1" value="" style="edgeStyle=elbowEdgeStyle;elbow=horizontal;endArrow=classic;html=1;exitX=1;exitY=0.5;exitDx=0;exitDy=0;entryX=0;entryY=0.75;entryDx=0;entryDy=0;" parent="1" source="OfORN7NUINiMixhZLZNA-86" target="OfORN7NUINiMixhZLZNA-50" edge="1">
          <mxGeometry width="50" height="50" relative="1" as="geometry">
            <mxPoint x="430" y="550" as="sourcePoint" />
            <mxPoint x="480" y="500" as="targetPoint" />
            <Array as="points">
              <mxPoint x="20" y="760" />
            </Array>
          </mxGeometry>
        </mxCell>
        <mxCell id="P1Pqjp0SeM_PM9h14-nR-1" value="T_CLAIM_OPER_EVENT" style="rounded=1;whiteSpace=wrap;html=1;fillColor=#d5e8d4;strokeColor=#82b366;" parent="1" vertex="1">
          <mxGeometry x="320" y="840" width="160" height="60" as="geometry" />
        </mxCell>
        <mxCell id="P1Pqjp0SeM_PM9h14-nR-2" value="T_ORGAN" style="rounded=1;whiteSpace=wrap;html=1;fillColor=#d5e8d4;strokeColor=#82b366;" parent="1" vertex="1">
          <mxGeometry x="1060" y="550" width="160" height="60" as="geometry" />
        </mxCell>
        <mxCell id="P1Pqjp0SeM_PM9h14-nR-3" value="T_DEPT" style="rounded=1;whiteSpace=wrap;html=1;fillColor=#d5e8d4;strokeColor=#82b366;" parent="1" vertex="1">
          <mxGeometry x="1060" y="460" width="160" height="60" as="geometry" />
        </mxCell>
        <mxCell id="P1Pqjp0SeM_PM9h14-nR-4" value="" style="edgeStyle=elbowEdgeStyle;elbow=horizontal;endArrow=classic;html=1;rounded=0;exitX=1;exitY=0.75;exitDx=0;exitDy=0;entryX=1;entryY=0.25;entryDx=0;entryDy=0;" parent="1" source="P1Pqjp0SeM_PM9h14-nR-2" target="P1Pqjp0SeM_PM9h14-nR-2" edge="1">
          <mxGeometry width="50" height="50" relative="1" as="geometry">
            <mxPoint x="1265" y="605" as="sourcePoint" />
            <mxPoint x="1315" y="555" as="targetPoint" />
            <Array as="points">
              <mxPoint x="1260" y="565" />
              <mxPoint x="1270" y="595" />
            </Array>
          </mxGeometry>
        </mxCell>
        <mxCell id="P1Pqjp0SeM_PM9h14-nR-5" value="" style="edgeStyle=elbowEdgeStyle;elbow=horizontal;endArrow=classic;html=1;rounded=0;exitX=1;exitY=0.75;exitDx=0;exitDy=0;entryX=1;entryY=0.25;entryDx=0;entryDy=0;" parent="1" source="P1Pqjp0SeM_PM9h14-nR-3" target="P1Pqjp0SeM_PM9h14-nR-3" edge="1">
          <mxGeometry width="50" height="50" relative="1" as="geometry">
            <mxPoint x="1230" y="605" as="sourcePoint" />
            <mxPoint x="1230" y="575" as="targetPoint" />
            <Array as="points">
              <mxPoint x="1260" y="490" />
              <mxPoint x="1280" y="605" />
            </Array>
          </mxGeometry>
        </mxCell>
        <mxCell id="P1Pqjp0SeM_PM9h14-nR-6" value="" style="endArrow=classic;html=1;entryX=0.5;entryY=0;entryDx=0;entryDy=0;" parent="1" source="P1Pqjp0SeM_PM9h14-nR-3" target="P1Pqjp0SeM_PM9h14-nR-2" edge="1">
          <mxGeometry width="50" height="50" relative="1" as="geometry">
            <mxPoint x="670" y="290" as="sourcePoint" />
            <mxPoint x="620" y="430" as="targetPoint" />
          </mxGeometry>
        </mxCell>
        <mxCell id="FIjVFcEKrEzkejblWKOD-2" style="edgeStyle=orthogonalEdgeStyle;rounded=0;orthogonalLoop=1;jettySize=auto;html=1;exitX=0;exitY=0.5;exitDx=0;exitDy=0;entryX=1;entryY=0.5;entryDx=0;entryDy=0;" edge="1" parent="1" source="FIjVFcEKrEzkejblWKOD-1" target="OfORN7NUINiMixhZLZNA-4">
          <mxGeometry relative="1" as="geometry" />
        </mxCell>
        <mxCell id="FIjVFcEKrEzkejblWKOD-7" style="edgeStyle=orthogonalEdgeStyle;rounded=0;orthogonalLoop=1;jettySize=auto;html=1;exitX=0.5;exitY=1;exitDx=0;exitDy=0;entryX=0.5;entryY=0;entryDx=0;entryDy=0;fillColor=#ffe6cc;strokeColor=#33001A;" edge="1" parent="1" source="FIjVFcEKrEzkejblWKOD-1" target="FIjVFcEKrEzkejblWKOD-4">
          <mxGeometry relative="1" as="geometry" />
        </mxCell>
        <mxCell id="FIjVFcEKrEzkejblWKOD-13" style="edgeStyle=orthogonalEdgeStyle;rounded=0;orthogonalLoop=1;jettySize=auto;html=1;exitX=1;exitY=0.5;exitDx=0;exitDy=0;entryX=0;entryY=0.5;entryDx=0;entryDy=0;startArrow=classic;startFill=1;endArrow=none;endFill=0;" edge="1" parent="1" source="FIjVFcEKrEzkejblWKOD-1" target="FIjVFcEKrEzkejblWKOD-11">
          <mxGeometry relative="1" as="geometry" />
        </mxCell>
        <mxCell id="FIjVFcEKrEzkejblWKOD-14" style="edgeStyle=orthogonalEdgeStyle;rounded=0;orthogonalLoop=1;jettySize=auto;html=1;exitX=1;exitY=0.5;exitDx=0;exitDy=0;entryX=0;entryY=0.5;entryDx=0;entryDy=0;startArrow=classic;startFill=1;endArrow=none;endFill=0;" edge="1" parent="1" source="FIjVFcEKrEzkejblWKOD-1" target="FIjVFcEKrEzkejblWKOD-12">
          <mxGeometry relative="1" as="geometry" />
        </mxCell>
        <mxCell id="FIjVFcEKrEzkejblWKOD-17" style="edgeStyle=orthogonalEdgeStyle;rounded=0;orthogonalLoop=1;jettySize=auto;html=1;exitX=0.5;exitY=0;exitDx=0;exitDy=0;entryX=0;entryY=0.5;entryDx=0;entryDy=0;startArrow=classic;startFill=1;endArrow=none;endFill=0;" edge="1" parent="1" source="FIjVFcEKrEzkejblWKOD-1" target="FIjVFcEKrEzkejblWKOD-16">
          <mxGeometry relative="1" as="geometry" />
        </mxCell>
        <mxCell id="FIjVFcEKrEzkejblWKOD-19" style="edgeStyle=orthogonalEdgeStyle;rounded=0;orthogonalLoop=1;jettySize=auto;html=1;exitX=0.5;exitY=0;exitDx=0;exitDy=0;entryX=0;entryY=0.5;entryDx=0;entryDy=0;startArrow=classic;startFill=1;endArrow=none;endFill=0;" edge="1" parent="1" source="FIjVFcEKrEzkejblWKOD-1" target="FIjVFcEKrEzkejblWKOD-18">
          <mxGeometry relative="1" as="geometry" />
        </mxCell>
        <mxCell id="FIjVFcEKrEzkejblWKOD-26" style="edgeStyle=orthogonalEdgeStyle;rounded=0;orthogonalLoop=1;jettySize=auto;html=1;exitX=0.5;exitY=0;exitDx=0;exitDy=0;entryX=0;entryY=0.5;entryDx=0;entryDy=0;endArrow=none;endFill=0;startArrow=classic;startFill=1;" edge="1" parent="1" source="FIjVFcEKrEzkejblWKOD-1" target="FIjVFcEKrEzkejblWKOD-25">
          <mxGeometry relative="1" as="geometry" />
        </mxCell>
        <mxCell id="FIjVFcEKrEzkejblWKOD-1" value="T_POLICY&lt;br&gt;policy_id&lt;br&gt;policy_code" style="rounded=1;whiteSpace=wrap;html=1;fillColor=#ffe6cc;strokeColor=#d79b00;" vertex="1" parent="1">
          <mxGeometry x="1450" y="260" width="160" height="170" as="geometry" />
        </mxCell>
        <mxCell id="FIjVFcEKrEzkejblWKOD-10" style="edgeStyle=orthogonalEdgeStyle;rounded=0;orthogonalLoop=1;jettySize=auto;html=1;exitX=0;exitY=0.5;exitDx=0;exitDy=0;entryX=1;entryY=0.5;entryDx=0;entryDy=0;" edge="1" parent="1" source="FIjVFcEKrEzkejblWKOD-4" target="OfORN7NUINiMixhZLZNA-7">
          <mxGeometry relative="1" as="geometry" />
        </mxCell>
        <mxCell id="FIjVFcEKrEzkejblWKOD-4" value="T_POLICY_PRODUCT&lt;br&gt;item_id" style="rounded=1;whiteSpace=wrap;html=1;fillColor=#ffe6cc;strokeColor=#d79b00;" vertex="1" parent="1">
          <mxGeometry x="1450" y="480" width="160" height="110" as="geometry" />
        </mxCell>
        <mxCell id="FIjVFcEKrEzkejblWKOD-9" style="edgeStyle=orthogonalEdgeStyle;rounded=0;orthogonalLoop=1;jettySize=auto;html=1;exitX=0.5;exitY=1;exitDx=0;exitDy=0;entryX=0.5;entryY=0;entryDx=0;entryDy=0;startArrow=classic;startFill=1;endArrow=none;endFill=0;" edge="1" parent="1" source="FIjVFcEKrEzkejblWKOD-8" target="OfORN7NUINiMixhZLZNA-35">
          <mxGeometry relative="1" as="geometry" />
        </mxCell>
        <mxCell id="FIjVFcEKrEzkejblWKOD-8" value="T_JOB_CATEGORY&lt;br&gt;job_code" style="rounded=1;whiteSpace=wrap;html=1;fillColor=#ffe6cc;strokeColor=#d79b00;" vertex="1" parent="1">
          <mxGeometry x="570" y="-340" width="160" height="60" as="geometry" />
        </mxCell>
        <mxCell id="FIjVFcEKrEzkejblWKOD-11" value="T_ADD_CUST_LIST_POLICY&lt;br&gt;policy_code" style="rounded=1;whiteSpace=wrap;html=1;fillColor=#ffe6cc;strokeColor=#d79b00;" vertex="1" parent="1">
          <mxGeometry x="1760" y="290" width="180" height="110" as="geometry" />
        </mxCell>
        <mxCell id="FIjVFcEKrEzkejblWKOD-12" value="T_POLICY_PROBLEM(问题件)&lt;br&gt;policy_id" style="rounded=1;whiteSpace=wrap;html=1;fillColor=#ffe6cc;strokeColor=#d79b00;" vertex="1" parent="1">
          <mxGeometry x="1760" y="420" width="180" height="110" as="geometry" />
        </mxCell>
        <mxCell id="FIjVFcEKrEzkejblWKOD-15" value="T_RULE_PROBLEM_CONIFG&lt;br&gt;config_id" style="rounded=1;whiteSpace=wrap;html=1;fillColor=#ffe6cc;strokeColor=#d79b00;" vertex="1" parent="1">
          <mxGeometry x="1760" y="660" width="180" height="110" as="geometry" />
        </mxCell>
        <mxCell id="FIjVFcEKrEzkejblWKOD-16" value="T_POLICY_ATTACH" style="rounded=1;whiteSpace=wrap;html=1;fillColor=#ffe6cc;strokeColor=#d79b00;" vertex="1" parent="1">
          <mxGeometry x="1760" y="160" width="180" height="50" as="geometry" />
        </mxCell>
        <mxCell id="FIjVFcEKrEzkejblWKOD-18" value="T_IMAGE" style="rounded=1;whiteSpace=wrap;html=1;fillColor=#ffe6cc;strokeColor=#d79b00;" vertex="1" parent="1">
          <mxGeometry x="1760" y="70" width="180" height="50" as="geometry" />
        </mxCell>
        <mxCell id="FIjVFcEKrEzkejblWKOD-20" value="T_AGENT_FOCUS_CATGORY" style="rounded=1;whiteSpace=wrap;html=1;fillColor=#ffe6cc;strokeColor=#d79b00;" vertex="1" parent="1">
          <mxGeometry x="740" y="-340" width="180" height="60" as="geometry" />
        </mxCell>
        <mxCell id="FIjVFcEKrEzkejblWKOD-25" value="T_POLICY_REPRESENTATION&lt;br&gt;(健康)告知表&lt;br&gt;" style="rounded=1;whiteSpace=wrap;html=1;fillColor=#ffe6cc;strokeColor=#d79b00;" vertex="1" parent="1">
          <mxGeometry x="1760" y="-250" width="180" height="80" as="geometry" />
        </mxCell>
        <mxCell id="FIjVFcEKrEzkejblWKOD-29" value="T_BANK&lt;br&gt;bank_code" style="rounded=1;whiteSpace=wrap;html=1;fillColor=#ffe6cc;strokeColor=#d79b00;" vertex="1" parent="1">
          <mxGeometry x="460" y="940" width="160" height="110" as="geometry" />
        </mxCell>
        <mxCell id="FIjVFcEKrEzkejblWKOD-33" style="edgeStyle=orthogonalEdgeStyle;rounded=0;orthogonalLoop=1;jettySize=auto;html=1;exitX=0;exitY=0.5;exitDx=0;exitDy=0;entryX=0;entryY=0.75;entryDx=0;entryDy=0;" edge="1" parent="1" source="FIjVFcEKrEzkejblWKOD-32" target="FIjVFcEKrEzkejblWKOD-1">
          <mxGeometry relative="1" as="geometry">
            <Array as="points">
              <mxPoint x="1400" y="835" />
              <mxPoint x="1400" y="388" />
            </Array>
          </mxGeometry>
        </mxCell>
        <mxCell id="FIjVFcEKrEzkejblWKOD-34" value="policy_id" style="edgeLabel;html=1;align=center;verticalAlign=middle;resizable=0;points=[];" vertex="1" connectable="0" parent="FIjVFcEKrEzkejblWKOD-33">
          <mxGeometry x="-0.01" y="-1" relative="1" as="geometry">
            <mxPoint as="offset" />
          </mxGeometry>
        </mxCell>
        <mxCell id="FIjVFcEKrEzkejblWKOD-32" value="T_WARNING_SMS_POOL&lt;br&gt;id" style="rounded=1;whiteSpace=wrap;html=1;fillColor=#ffe6cc;strokeColor=#d79b00;" vertex="1" parent="1">
          <mxGeometry x="1450" y="780" width="180" height="110" as="geometry" />
        </mxCell>
        <mxCell id="FIjVFcEKrEzkejblWKOD-39" style="edgeStyle=orthogonalEdgeStyle;rounded=0;orthogonalLoop=1;jettySize=auto;html=1;exitX=0.5;exitY=1;exitDx=0;exitDy=0;entryX=0.5;entryY=0;entryDx=0;entryDy=0;" edge="1" parent="1" source="FIjVFcEKrEzkejblWKOD-35" target="FIjVFcEKrEzkejblWKOD-38">
          <mxGeometry relative="1" as="geometry" />
        </mxCell>
        <mxCell id="FIjVFcEKrEzkejblWKOD-35" value="T_BILLCARD" style="rounded=1;whiteSpace=wrap;html=1;fillColor=#ffe6cc;strokeColor=#d79b00;" vertex="1" parent="1">
          <mxGeometry x="1760" y="815" width="180" height="110" as="geometry" />
        </mxCell>
        <mxCell id="FIjVFcEKrEzkejblWKOD-38" value="T_BILLCARD_SS_INFO&lt;br&gt;激活信息" style="rounded=1;whiteSpace=wrap;html=1;fillColor=#ffe6cc;strokeColor=#d79b00;" vertex="1" parent="1">
          <mxGeometry x="1760" y="970" width="180" height="110" as="geometry" />
        </mxCell>
        <mxCell id="FIjVFcEKrEzkejblWKOD-42" style="edgeStyle=orthogonalEdgeStyle;rounded=0;orthogonalLoop=1;jettySize=auto;html=1;exitX=0.5;exitY=0;exitDx=0;exitDy=0;entryX=0.5;entryY=1;entryDx=0;entryDy=0;" edge="1" parent="1" source="FIjVFcEKrEzkejblWKOD-40" target="P1Pqjp0SeM_PM9h14-nR-2">
          <mxGeometry relative="1" as="geometry" />
        </mxCell>
        <mxCell id="FIjVFcEKrEzkejblWKOD-40" value="T_CAPITA_DISPOSABLE_INCOME&lt;br&gt;城镇居民可支配收入&lt;br&gt;organ_id" style="rounded=1;whiteSpace=wrap;html=1;fillColor=#ffe6cc;strokeColor=#d79b00;" vertex="1" parent="1">
          <mxGeometry x="1025" y="980" width="230" height="110" as="geometry" />
        </mxCell>
        <mxCell id="FIjVFcEKrEzkejblWKOD-44" style="edgeStyle=orthogonalEdgeStyle;rounded=0;orthogonalLoop=1;jettySize=auto;html=1;exitX=1;exitY=0.5;exitDx=0;exitDy=0;entryX=1;entryY=0.5;entryDx=0;entryDy=0;" edge="1" parent="1" source="FIjVFcEKrEzkejblWKOD-43" target="OfORN7NUINiMixhZLZNA-4">
          <mxGeometry relative="1" as="geometry" />
        </mxCell>
        <mxCell id="FIjVFcEKrEzkejblWKOD-45" value="policy_id" style="edgeLabel;html=1;align=center;verticalAlign=middle;resizable=0;points=[];" vertex="1" connectable="0" parent="FIjVFcEKrEzkejblWKOD-44">
          <mxGeometry x="-0.7023" relative="1" as="geometry">
            <mxPoint as="offset" />
          </mxGeometry>
        </mxCell>
        <mxCell id="FIjVFcEKrEzkejblWKOD-43" value="T_LIABILITY_CHANGE&lt;br&gt;保单责任变更&lt;br&gt;change_id" style="rounded=1;whiteSpace=wrap;html=1;fillColor=#ffe6cc;strokeColor=#d79b00;" vertex="1" parent="1">
          <mxGeometry x="450" y="1090" width="180" height="80" as="geometry" />
        </mxCell>
        <mxCell id="FIjVFcEKrEzkejblWKOD-47" style="edgeStyle=orthogonalEdgeStyle;rounded=0;orthogonalLoop=1;jettySize=auto;html=1;exitX=0.25;exitY=1;exitDx=0;exitDy=0;entryX=0.5;entryY=0;entryDx=0;entryDy=0;" edge="1" parent="1" source="FIjVFcEKrEzkejblWKOD-46" target="OfORN7NUINiMixhZLZNA-35">
          <mxGeometry relative="1" as="geometry" />
        </mxCell>
        <mxCell id="FIjVFcEKrEzkejblWKOD-46" value="T_CUSTOMER_REPRESENT_DIALOG&lt;br&gt;互动核保记录&lt;br&gt;dialog_id" style="rounded=1;whiteSpace=wrap;html=1;fillColor=#ffe6cc;strokeColor=#d79b00;" vertex="1" parent="1">
          <mxGeometry x="1030" y="-340" width="250" height="60" as="geometry" />
        </mxCell>
        <mxCell id="FIjVFcEKrEzkejblWKOD-48" value="T_SPECIAL_CUSTOMER_GRP_CLAIM&lt;br&gt;团险客户表&lt;br&gt;certi_code&lt;br&gt;gender" style="rounded=1;whiteSpace=wrap;html=1;fillColor=#ffe6cc;strokeColor=#d79b00;" vertex="1" parent="1">
          <mxGeometry x="275" y="-340" width="250" height="60" as="geometry" />
        </mxCell>
        <mxCell id="FIjVFcEKrEzkejblWKOD-50" style="edgeStyle=orthogonalEdgeStyle;rounded=0;orthogonalLoop=1;jettySize=auto;html=1;exitX=0;exitY=0.5;exitDx=0;exitDy=0;entryX=1;entryY=0.5;entryDx=0;entryDy=0;" edge="1" parent="1" source="FIjVFcEKrEzkejblWKOD-49" target="OfORN7NUINiMixhZLZNA-10">
          <mxGeometry relative="1" as="geometry" />
        </mxCell>
        <mxCell id="FIjVFcEKrEzkejblWKOD-49" value="T_LIAB_PAY_RELATIVE&lt;br&gt;豁免责任" style="rounded=1;whiteSpace=wrap;html=1;fillColor=#ffe6cc;strokeColor=#d79b00;" vertex="1" parent="1">
          <mxGeometry x="1130" y="280" width="180" height="60" as="geometry" />
        </mxCell>
        <mxCell id="FIjVFcEKrEzkejblWKOD-53" style="edgeStyle=orthogonalEdgeStyle;rounded=0;orthogonalLoop=1;jettySize=auto;html=1;exitX=0;exitY=0.5;exitDx=0;exitDy=0;entryX=0.5;entryY=0;entryDx=0;entryDy=0;" edge="1" parent="1" source="FIjVFcEKrEzkejblWKOD-52" target="FIjVFcEKrEzkejblWKOD-1">
          <mxGeometry relative="1" as="geometry" />
        </mxCell>
        <mxCell id="FIjVFcEKrEzkejblWKOD-52" value="T_POLICY_AUTO&lt;br&gt;自动核保结果" style="rounded=1;whiteSpace=wrap;html=1;fillColor=#ffe6cc;strokeColor=#d79b00;" vertex="1" parent="1">
          <mxGeometry x="1760" y="-40" width="180" height="80" as="geometry" />
        </mxCell>
        <mxCell id="FIjVFcEKrEzkejblWKOD-55" style="edgeStyle=orthogonalEdgeStyle;rounded=0;orthogonalLoop=1;jettySize=auto;html=1;exitX=0.5;exitY=0;exitDx=0;exitDy=0;entryX=1;entryY=0.5;entryDx=0;entryDy=0;" edge="1" parent="1" source="FIjVFcEKrEzkejblWKOD-54" target="OfORN7NUINiMixhZLZNA-4">
          <mxGeometry relative="1" as="geometry" />
        </mxCell>
        <mxCell id="FIjVFcEKrEzkejblWKOD-54" value="T_POLICY_CHANGE&lt;br&gt;保单变更&lt;br&gt;change_id" style="rounded=1;whiteSpace=wrap;html=1;fillColor=#ffe6cc;strokeColor=#d79b00;" vertex="1" parent="1">
          <mxGeometry x="700" y="1090" width="180" height="80" as="geometry" />
        </mxCell>
      </root>
    </mxGraphModel>
  </diagram>
</mxfile>
